<?xml version="1.0" encoding="UTF-8"?>
<svg width="324px" height="62px" viewBox="0 0 324 62" version="1.1" xmlns="http://www.w3.org/2000/svg" xmlns:xlink="http://www.w3.org/1999/xlink">
    <!-- Generator: Sketch 48.2 (47327) - http://www.bohemiancoding.com/sketch -->
    <title>DmMsyewtkhAzjNkeGnYe</title>
    <desc>Created with Sketch.</desc>
    <defs></defs>
    <g id="Page-1" stroke="none" stroke-width="1" fill="none" fill-rule="evenodd">
        <g id="DmMsyewtkhAzjNkeGnYe" fill="#0D1A26" fill-rule="nonzero">
            <path d="M7.111391,49.0857471 L0,49.0857471 L16.999589,2.9322217 L23.341355,2.9322217 L40.340944,49.0857471 L33.229553,49.0857471 L28.710732,36.2026881 L11.630212,36.2026881 L7.111391,49.0857471 Z M13.681944,30.2892259 L26.659,30.2892259 L20.170472,11.7822541 L13.681944,30.2892259 Z M62.429244,13.7252929 C70.291888,13.7252929 74.748041,18.4470228 74.748041,26.7420398 L74.748041,49.0857471 L68.248061,49.0857471 L68.248061,28.0521814 C68.248061,22.3055128 65.93526,19.7011428 60.902194,19.7011428 C55.820177,19.7011428 52.652562,23.0729439 52.652562,28.6136707 L52.652562,49.0857471 L46.152582,49.0857471 L46.152582,14.317976 L52.403248,14.317976 L52.403248,18.8184057 C54.371737,15.4887389 57.747562,13.7252929 62.429244,13.7252929 Z M85.637733,14.317976 L85.637733,5.6148925 L92.137712,5.6148925 L92.137712,14.317976 L99.617141,14.317976 L99.617141,19.9506936 L92.137712,19.9506936 L92.137712,38.4085388 C92.137712,42.0659835 93.391816,43.4842234 96.554137,43.4842234 C97.464084,43.4842234 97.968038,43.4582217 98.994089,43.3619382 L99.617141,43.3034717 L99.617141,48.9315139 L99.146313,49.01468 C97.936908,49.2283068 96.913821,49.3352979 95.899687,49.3352979 C88.67051,49.3352979 85.637733,46.5273179 85.637733,39.7810681 L85.637733,19.9506936 L80.215147,19.9506936 L80.215147,14.317976 L85.637733,14.317976 Z M141.274887,2.9322217 C154.944554,2.9322217 163.067627,11.5330879 163.067627,25.9933875 C163.067627,40.4924625 154.968601,49.0857471 141.274887,49.0857471 L125.278705,49.0857471 L125.278705,2.9322217 L141.274887,2.9322217 Z M132.027998,42.8915403 L140.900916,42.8915403 C150.598262,42.8915403 156.193676,36.7436217 156.193676,26.0557752 C156.193676,15.351214 150.548965,9.1264285 140.900916,9.1264285 L132.027998,9.1264285 L132.027998,42.8915403 Z M184.904888,19.6075613 C180.054552,19.6075613 176.611481,23.016805 176.022504,28.3552074 L193.317809,28.3552074 C192.99056,23.0161599 189.725625,19.6075613 184.904888,19.6075613 Z M185.091873,43.7961619 C189.182292,43.7961619 191.928561,42.3404413 193.24054,39.5680807 L193.394919,39.2418601 L199.867924,39.2418601 L199.664404,39.9666097 C197.954551,46.0555106 192.494498,49.6784302 184.967216,49.6784302 C175.331935,49.6784302 169.251512,42.6879025 169.251512,31.7330554 C169.251512,20.8434944 175.422685,13.7252929 184.967216,13.7252929 C194.351644,13.7252929 200.121963,20.4323766 200.121963,31.20276 L200.121963,33.8319557 L175.986978,33.8319557 C176.36593,40.0071108 179.831498,43.7961619 185.091873,43.7961619 Z M206.617491,24.0905628 C206.617491,18.158047 212.288801,13.7252929 219.715395,13.7252929 C227.019586,13.7252929 232.175566,17.4011528 232.933205,23.2372145 L233.016797,23.8811184 L226.632682,23.8811184 L226.519653,23.4580866 C225.852824,20.9623618 223.380318,19.4203982 219.684231,19.4203982 C215.886237,19.4203982 213.148635,21.3084619 213.148635,23.8722059 C213.148635,25.8199159 214.756537,27.1035482 218.53999,28.0279469 L223.713479,29.2757533 C230.387328,30.8882104 233.530078,33.8841448 233.530078,38.9388342 C233.530078,45.2291952 227.535597,49.6784302 219.497245,49.6784302 C211.761511,49.6784302 206.344259,45.9131364 205.71691,39.9972445 L205.650037,39.3666355 L212.216161,39.3666355 L212.342623,39.7638429 C213.198459,42.4519445 215.755033,44.0145188 219.684231,44.0145188 C223.944291,44.0145188 226.874277,42.0454955 226.874277,39.3443542 C226.874277,37.3468952 225.333214,35.9742524 221.980358,35.1571303 L216.215314,33.7534922 C209.617792,32.151585 206.617491,29.2028995 206.617491,24.0905628 Z M240.92937,49.0857471 L240.92937,14.317976 L247.429349,14.317976 L247.429349,49.0857471 L240.92937,49.0857471 Z M244.17936,8.627327 C241.807791,8.627327 239.869784,6.6874816 239.869784,4.3136635 C239.869784,1.9398453 241.807791,0 244.17936,0 C246.550928,0 248.488935,1.9398453 248.488935,4.3136635 C248.488935,6.6874816 246.550928,8.627327 244.17936,8.627327 Z M270.669003,42.7043772 C276.495126,42.7043772 280.071713,38.3189021 280.071713,31.20276 C280.071713,24.1006946 276.475491,19.7011428 270.669003,19.7011428 C264.902859,19.7011428 261.515607,24.0111922 261.515607,31.20276 C261.515607,38.3943278 264.902859,42.7043772 270.669003,42.7043772 Z M280.19637,14.317976 L286.447035,14.317976 L286.447035,49.1080285 C286.447035,56.9782785 280.360884,62 270.918317,62 C262.705685,62 257.140308,58.2862296 256.268182,52.3098555 L256.172913,51.6570114 L262.963914,51.6570114 L263.060985,52.1070322 C263.601309,54.6119594 266.439936,56.1801193 270.918317,56.1801193 C276.637667,56.1801193 279.947056,53.4470883 279.947056,48.8272838 L279.947056,43.3974088 C277.648043,46.7263421 273.914904,48.5866456 269.48476,48.5866456 C260.539386,48.5866456 254.828641,41.6815227 254.828641,31.20276 C254.828641,20.7309425 260.595237,13.7252929 269.48476,13.7252929 C273.955624,13.7252929 277.978268,15.733549 280.19637,19.0037446 L280.19637,14.317976 Z M311.681203,13.7252929 C319.543847,13.7252929 324,18.4470228 324,26.7420398 L324,49.0857471 L317.50002,49.0857471 L317.50002,28.0521814 C317.50002,22.3055128 315.187219,19.7011428 310.154153,19.7011428 C305.072136,19.7011428 301.904521,23.0729439 301.904521,28.6136707 L301.904521,49.0857471 L295.404542,49.0857471 L295.404542,14.317976 L301.655207,14.317976 L301.655207,18.8184057 C303.623696,15.4887389 306.999521,13.7252929 311.681203,13.7252929 Z" id="Ant-Design-Copy"></path>
        </g>
    </g>
</svg>