<svg width="1080" height="1080" viewBox="0 0 1080 1080" fill="none" xmlns="http://www.w3.org/2000/svg">
<g clip-path="url(#clip0)">
<rect width="1080" height="1080" fill="white"/>
<path d="M572 106.899C572 103.786 570.264 100.932 567.5 99.5C543.204 85.8839 515.185 86.596 490.889 100.212L334.267 187.987C326.691 192.232 322 200.239 322 208.923V292.567C322 298.682 328.582 302.536 333.915 299.544L404 260.218L404 260.244L460.171 228.726C470.836 222.742 484 230.45 484 242.68L484 958.565C484 961.41 485.511 964.041 487.968 965.475L517.904 982.943C525.378 987.305 534.622 987.305 542.096 982.943L568.032 967.809C570.489 966.375 572 963.744 572 960.899L572 106.899Z" fill="#2673DD"/>
<path d="M391.968 909.454C397.301 912.566 404 908.719 404 902.544L404 365.614C404 359.499 397.418 355.644 392.085 358.637L334.256 391.086C326.686 395.333 322 403.336 322 412.016L322 854.842C322 863.377 326.533 871.269 333.904 875.571L391.968 909.454Z" fill="#2673DD"/>
<path d="M217.828 805.641C228.494 811.976 242 804.29 242 791.885V470.216C242 457.977 228.819 450.27 218.153 456.273L172.229 482.118C164.675 486.369 160 494.364 160 503.033V716.477C160 744.926 167.5 775 191.5 790L217.828 805.641Z" fill="#2673DD"/>
<path d="M160 384.179C160 390.321 166.635 394.172 171.968 391.125L229.905 358.028C237.384 353.755 242 345.802 242 337.189L242 269.676C242 256.88 227.724 249.261 217.093 256.384L190.889 273.943C169 289 160 314.784 160 343.731V384.179Z" fill="#2673DD"/>
<path d="M651.5 888.518C651.5 894.592 658.002 898.45 663.333 895.54L873.321 780.908C897.892 766.57 913 740.261 913 711.812V339.066C913 310.119 897.363 283.43 872.111 269.278L663.366 154.05C658.034 151.107 651.5 154.964 651.5 161.054V241.103C651.5 249.699 656.097 257.639 663.553 261.918L812.465 347.388C817.435 350.241 820.5 355.534 820.5 361.265V687.655C820.5 693.505 817.307 698.889 812.173 701.695L663.991 782.674C656.29 786.882 651.5 794.958 651.5 803.734V888.518Z" fill="#2673DD"/>
<path d="M739 406.551C739 402.239 736.687 398.259 732.941 396.125L669.941 360.224C661.941 355.665 652 361.442 652 370.65L652 677.958C652 687.159 661.929 692.937 669.929 688.391L732.929 652.591C736.682 650.458 739 646.474 739 642.158V406.551Z" fill="#EE4D2D"/>
<path d="M160 384.179C160 390.321 166.635 394.172 171.968 391.125L229.905 358.028C237.384 353.755 242 345.802 242 337.189L242 269.676C242 256.88 227.724 249.261 217.093 256.384L190.889 273.943C169 289 160 314.784 160 343.731V384.179Z" fill="#EE4D2D"/>
</g>
<defs>
<clipPath id="clip0">
<rect width="1080" height="1080" fill="white"/>
</clipPath>
</defs>
</svg>
