<?xml version="1.0" encoding="utf-8"?>
<!-- Generator: Adobe Illustrator 23.0.6, SVG Export Plug-In . SVG Version: 6.00 Build 0)  -->
<svg version="1.1" id="Layer_1" xmlns="http://www.w3.org/2000/svg" xmlns:xlink="http://www.w3.org/1999/xlink" x="0px" y="0px"
	 viewBox="0 0 78 37" style="enable-background:new 0 0 78 37;" xml:space="preserve">
<style type="text/css">
	.st0{fill-rule:evenodd;clip-rule:evenodd;fill:#FFFFFF;}
</style>
<g>
	<path class="st0" d="M75.2,30c0.8,0,1.5,0.2,2,0.7c0.5,0.5,0.7,1.1,0.7,1.8V37H52.2v-2.5c0-0.5,0.1-1.1,0.3-1.6
		c0.2-0.6,0.6-1.1,1.1-1.5l10.5-10.6c0.8-0.8,1.6-1.7,2.4-2.6c0.6-0.8,1.2-1.6,1.7-2.4c0.4-0.8,0.7-1.6,1-2.4
		c0.2-0.8,0.3-1.7,0.3-2.5c0-1.5-0.3-2.6-1-3.4c-0.7-0.8-1.8-1.2-3.2-1.2c-1.2,0-2.1,0.3-2.9,0.9c-0.5,0.4-0.9,0.9-1.3,1.4
		c0,0,0,0,0,0c-0.6,1.1-1.7,1.8-3,1.8c-1.7,0-3.9,0.1-5.3,0.1c0.3-1.7,0.8-3.3,1.5-4.6c0.7-1.3,1.7-2.4,2.8-3.4s2.5-1.6,3.9-2
		C62.5,0.2,64.1,0,65.7,0c1.8,0,3.4,0.3,4.9,0.8C72,1.3,73.2,2.1,74.3,3c1,0.9,1.8,2.1,2.3,3.4c0.5,1.3,0.8,2.7,0.8,4.3
		c0,1.3-0.2,2.5-0.6,3.7c-0.4,1.1-0.9,2.2-1.5,3.3c-0.7,1.1-1.4,2.1-2.3,3c-0.9,1-1.8,1.9-2.8,2.9c0,0-7,7.1-6.9,7
		c0,0,0.6-0.1,1.2-0.2c0.3,0,0.7-0.1,1-0.1c0,0,0.1,0,0.1,0c0,0,0.1,0,0.1,0c0.6-0.1,1.1-0.2,1.7-0.2c0.2,0,0.5,0,0.7,0
		c0,0,0,0,0.1,0c0,0,0.1,0,0.1,0l5.3,0c0,0,0,0,0,0c0,0,0,0,0,0L75.2,30z M35.4,13.7c1.4-0.7,1.5-1,1.6-1.2c0,0,0,0,0,0
		c-0.5,0-1,0.1-1.9,0.3c-2.3,0.5-4.5,1.2-6.7,2L23.4,1.6c-0.1-0.4-0.4-0.7-0.7-0.9c-0.3-0.2-0.7-0.3-1.1-0.3h-7.4L0.1,37v0v0h7.3
		c0.8,0,1.7-0.3,2.2-1c4.2-6,9-10.7,13.5-14.3l4.6,13.4c0.2,0.5,0.6,1,1,1.3c0.5,0.3,1,0.5,1.8,0.5h6.6l-7.7-19.8
		C31.8,15.6,33.9,14.5,35.4,13.7L35.4,13.7z M13.9,22.4l3.3-9.4c0.3-0.6,0.5-1.4,0.8-2.3c0.1-0.2,0.3-0.9,0.6-1.9l3,8.8
		C19,19.1,16.4,20.6,13.9,22.4z M40,10.9c0,0.1,0,0.2,0.1,0.4s0.1,0.2,0.2,0.3c0.1,0.1,0.2,0.1,0.3,0.2c0.1,0,0.2,0,0.4,0
		c0.9-0.1,1.8-0.2,2.7-0.3l0,0c-1,0.1-1.9,0.6-2.6,1.4c-0.7,0.8-1,1.7-1,2.7V37h8.5V0.4H40L40,10.9z"/>
</g>
</svg>
