<?xml version="1.0" encoding="utf-8"?>
<!-- Generator: Adobe Illustrator 23.0.6, SVG Export Plug-In . SVG Version: 6.00 Build 0)  -->
<svg version="1.1" id="Layer_1" xmlns="http://www.w3.org/2000/svg" xmlns:xlink="http://www.w3.org/1999/xlink" x="0px" y="0px"
	 viewBox="0 0 264 30" style="enable-background:new 0 0 264 30;" xml:space="preserve">
<style type="text/css">
	.st0{fill:url(#SVGID_1_);}
	.st1{fill:#265ED4;}
	.st2{fill:url(#SVGID_2_);}
	.st3{fill:url(#SVGID_3_);}
	.st4{fill:url(#SVGID_4_);}
</style>
<g>

		<linearGradient id="SVGID_1_" gradientUnits="userSpaceOnUse" x1="-0.6105" y1="-9.6707" x2="13.3484" y2="29.545" gradientTransform="matrix(1 0 0 -1 0 32)">
		<stop  offset="0.177" style="stop-color:#00D5FF"/>
		<stop  offset="0.3061" style="stop-color:#06C1F4"/>
		<stop  offset="0.5718" style="stop-color:#148BD7"/>
		<stop  offset="0.9012" style="stop-color:#1A4CAE"/>
	</linearGradient>
	<path class="st0" d="M17.2,0.3h-5.7L0,30h5.4c0.6,0,1-0.2,1.4-0.5c0.4-0.3,0.7-0.6,0.8-1l6.3-17.9c0.2-0.5,0.4-1.1,0.7-1.8
		C14.8,8,17.2,0.3,17.2,0.3z"/>
	<path class="st1" d="M32.4,12.6V30h6.9V8.9C38,9,36.7,9.1,35.6,9.2l-0.3,0c-0.8,0.1-1.6,0.5-2.1,1.1C32.7,11,32.4,11.8,32.4,12.6
		L32.4,12.6z"/>

		<linearGradient id="SVGID_2_" gradientUnits="userSpaceOnUse" x1="22.8957" y1="18.0825" x2="-9.1721" y2="-5.3588" gradientTransform="matrix(1 0 0 -1 0 32)">
		<stop  offset="0.3803" style="stop-color:#00D5FF"/>
		<stop  offset="0.4684" style="stop-color:#02CFFD"/>
		<stop  offset="0.5906" style="stop-color:#08BDF6"/>
		<stop  offset="0.7327" style="stop-color:#129FEB"/>
		<stop  offset="0.8885" style="stop-color:#2077DC"/>
		<stop  offset="1" style="stop-color:#2B55CF"/>
	</linearGradient>
	<path class="st2" d="M30,10.1c-0.4,0-0.8,0-1.6,0.2C16.6,13,5.5,20.8,0,30h5.9c0.7,0,1.4-0.2,1.7-0.8c7.2-10.3,16.7-15.9,21-18.1
		C29.9,10.5,29.9,10.2,30,10.1z"/>
	<path class="st1" d="M17.5,0.3h-6c0,0,1.2,0.4,1.7,1.5l9.2,26.7c0.2,0.4,0.5,0.8,0.8,1.1c0.4,0.3,0.8,0.4,1.4,0.4H30L18.9,1.3
		c-0.1-0.3-0.3-0.5-0.6-0.7C18.1,0.4,17.8,0.3,17.5,0.3L17.5,0.3z"/>

		<radialGradient id="SVGID_3_" cx="-175.5284" cy="408.1748" r="9.751448e-02" gradientTransform="matrix(78.3897 0 0 -78.3942 13795.4688 32007.1074)" gradientUnits="userSpaceOnUse">
		<stop  offset="0" style="stop-color:#FFD215"/>
		<stop  offset="1" style="stop-color:#FF9B00"/>
	</radialGradient>
	<path class="st3" d="M39.3,8.9V0.3h-6.9v8.5c0,0.1,0,0.2,0.1,0.3c0,0.1,0.1,0.2,0.2,0.2c0.1,0.1,0.2,0.1,0.3,0.1c0.1,0,0.2,0,0.3,0
		C35.2,9.2,37.6,9,39.3,8.9z"/>
	<path class="st1" d="M51.4,25l0-0.2l5.6-5.7c0.8-0.8,1.5-1.6,2.2-2.4c0.7-0.8,1.3-1.6,1.8-2.4c0.5-0.8,0.9-1.7,1.3-2.6
		c0.3-1,0.5-2,0.5-3c0-1.3-0.2-2.4-0.7-3.5c-0.4-1-1.1-2-1.9-2.7c-0.8-0.8-1.8-1.4-3-1.8C56,0.2,54.7,0,53.2,0
		c-1.3,0-2.6,0.2-3.8,0.5c-1.2,0.3-2.2,0.9-3.2,1.7c-0.9,0.8-1.7,1.7-2.3,2.7c-0.6,1.1-1,2.3-1.2,3.7c1.1-0.1,2.9-0.1,4.3-0.1
		c1,0,1.9-0.6,2.4-1.5c0,0,0,0,0,0c0.3-0.4,0.6-0.8,1-1.1c0.6-0.5,1.4-0.7,2.4-0.7c1.2,0,2,0.3,2.6,0.9c0.6,0.6,0.8,1.5,0.8,2.7
		c0,0.7-0.1,1.4-0.3,2c-0.2,0.7-0.5,1.3-0.8,1.9c-0.4,0.7-0.8,1.4-1.3,2c-0.6,0.7-1.2,1.4-1.9,2.1l-8.6,8.6
		c-0.4,0.3-0.7,0.7-0.9,1.2c-0.2,0.4-0.2,0.8-0.2,1.3v2H48L51.4,25z"/>

		<linearGradient id="SVGID_4_" gradientUnits="userSpaceOnUse" x1="57.3822" y1="4.8329" x2="48.0221" y2="4.8491" gradientTransform="matrix(1 0 0 -1 0 32)">
		<stop  offset="0" style="stop-color:#2B55CF"/>
		<stop  offset="1" style="stop-color:#1A4CAE"/>
	</linearGradient>
	<path class="st4" d="M62.5,24.9c-0.4-0.4-0.9-0.6-1.6-0.6h-1.2c0,0,0,0,0,0l-4.3,0c0,0-0.1,0-0.1,0c-0.2,0-0.4,0-0.6,0
		c-0.5,0-0.9,0.1-1.4,0.2c-0.1,0-0.1,0-0.2,0c-0.3,0-0.6,0.1-0.8,0.1c-0.5,0.1-1,0.1-1,0.1c-1,1-2.2,2.2-2.9,2.9
		c-0.4,0.4-0.6,1-0.6,1.5V30h15.2v-3.7C63.1,25.7,62.9,25.2,62.5,24.9L62.5,24.9z"/>
	<path class="st1" d="M89.8,23.1h-1.7c-0.2,0-0.3,0-0.5-0.1c-0.1-0.1-0.2-0.2-0.3-0.4l-1.5-3.8h-7.1l-1.5,3.8c0,0.1-0.1,0.3-0.3,0.4
		c-0.1,0.1-0.3,0.2-0.5,0.2H75l6.3-15.8h2.2L89.8,23.1z M85.3,17.2l-2.5-6.4c-0.1-0.2-0.2-0.4-0.2-0.7c-0.1-0.3-0.2-0.5-0.2-0.8
		c-0.1,0.5-0.3,1-0.5,1.5l-2.5,6.4H85.3z"/>
	<path class="st1" d="M93.2,6.8v16.2h-2V6.8H93.2z"/>
	<path class="st1" d="M97.8,6.8v16.2h-2V6.8H97.8z"/>
	<path class="st1" d="M109.6,21.5c-0.2,0.3-0.5,0.6-0.9,0.8c-0.3,0.2-0.7,0.4-1.1,0.5c-0.4,0.1-0.8,0.2-1.2,0.3
		c-0.4,0.1-0.8,0.1-1.2,0.1c-0.7,0-1.5-0.1-2.1-0.4c-0.6-0.3-1.2-0.6-1.7-1.1c-0.5-0.5-0.9-1.2-1.1-1.9c-0.3-0.8-0.4-1.7-0.4-2.6
		c0-0.7,0.1-1.5,0.4-2.2c0.2-0.6,0.6-1.2,1-1.8c0.5-0.5,1-0.9,1.6-1.2c0.7-0.3,1.4-0.4,2.2-0.4c0.6,0,1.3,0.1,1.9,0.3
		c0.6,0.2,1.1,0.5,1.5,1c0.4,0.4,0.8,1,1,1.6c0.2,0.7,0.4,1.4,0.4,2.1c0,0.2,0,0.4-0.1,0.6c0,0.1-0.1,0.1-0.2,0.1
		c-0.1,0-0.1,0-0.2,0h-7.5c0,0.6,0.1,1.2,0.3,1.8c0.1,0.5,0.4,0.9,0.7,1.3c0.3,0.3,0.7,0.6,1.1,0.8c0.5,0.2,0.9,0.3,1.4,0.3
		c0.4,0,0.9,0,1.3-0.2c0.3-0.1,0.6-0.2,0.9-0.4c0.2-0.1,0.4-0.2,0.6-0.4c0.1-0.1,0.3-0.2,0.4-0.2c0.1,0,0.1,0,0.2,0
		c0.1,0,0.1,0.1,0.2,0.1L109.6,21.5z M108,16.3c0-0.4-0.1-0.8-0.2-1.3c-0.1-0.4-0.3-0.7-0.6-1c-0.2-0.3-0.6-0.5-0.9-0.6
		c-0.6-0.2-1.2-0.3-1.8-0.2c-0.6,0.1-1.2,0.4-1.6,0.8c-0.6,0.6-0.9,1.4-1,2.3L108,16.3z"/>
	<path class="st1" d="M113.7,13.5c0.2-0.3,0.5-0.5,0.8-0.7c0.3-0.2,0.6-0.4,0.9-0.6c0.3-0.2,0.6-0.3,1-0.4c0.4-0.1,0.7-0.1,1.1-0.1
		c0.6,0,1.1,0.1,1.6,0.3c0.5,0.2,0.9,0.5,1.2,0.9c0.3,0.4,0.6,0.8,0.7,1.3c0.2,0.6,0.2,1.1,0.2,1.7v7.1h-2v-7.1c0-0.7-0.2-1.4-0.6-2
		c-0.2-0.2-0.5-0.4-0.8-0.6c-0.3-0.1-0.6-0.2-1-0.1c-0.6,0-1.1,0.1-1.6,0.4c-0.5,0.3-1,0.7-1.4,1.1v8.2h-2V11.9h1.2
		c0.1,0,0.2,0,0.3,0.1c0.1,0.1,0.2,0.2,0.2,0.3L113.7,13.5z"/>
	<path class="st1" d="M132.4,23.1h-2.1V7.3h2.1V23.1z"/>
	<path class="st1" d="M137.3,13.5c0.2-0.3,0.5-0.5,0.8-0.7c0.3-0.2,0.6-0.4,0.9-0.6c0.3-0.2,0.6-0.3,1-0.4c0.4-0.1,0.7-0.1,1.1-0.1
		c0.6,0,1.1,0.1,1.6,0.3c0.5,0.2,0.9,0.5,1.2,0.9c0.3,0.4,0.6,0.8,0.7,1.3c0.2,0.6,0.2,1.1,0.2,1.7v7.1h-2v-7.1c0-0.7-0.2-1.4-0.6-2
		c-0.2-0.2-0.5-0.4-0.8-0.6c-0.3-0.1-0.6-0.2-1-0.1c-0.6,0-1.1,0.1-1.6,0.4c-0.5,0.3-1,0.7-1.4,1.1v8.2h-2V11.9h1.2
		c0.1,0,0.2,0,0.3,0.1c0.1,0.1,0.2,0.2,0.2,0.3L137.3,13.5z"/>
	<path class="st1" d="M153.7,13.7c0,0.1-0.1,0.1-0.2,0.2c-0.1,0-0.2,0.1-0.2,0.1c-0.1,0-0.3,0-0.4-0.1c-0.1-0.1-0.3-0.2-0.5-0.3
		c-0.2-0.1-0.5-0.2-0.7-0.3c-0.3-0.1-0.7-0.1-1-0.1c-0.3,0-0.6,0-0.9,0.1c-0.2,0.1-0.5,0.2-0.7,0.3c-0.2,0.1-0.3,0.3-0.4,0.5
		c-0.1,0.2-0.2,0.4-0.1,0.6c0,0.3,0.1,0.5,0.2,0.7c0.2,0.2,0.4,0.4,0.7,0.5c0.3,0.1,0.6,0.3,0.9,0.4c0.3,0.1,0.7,0.2,1.1,0.3
		c0.4,0.1,0.7,0.3,1.1,0.4c0.3,0.1,0.6,0.3,0.9,0.6c0.3,0.2,0.5,0.5,0.7,0.8c0.2,0.4,0.3,0.8,0.2,1.2c0,0.5-0.1,1-0.3,1.4
		c-0.2,0.4-0.5,0.8-0.8,1.1c-0.4,0.3-0.8,0.6-1.3,0.8c-0.6,0.2-1.2,0.3-1.8,0.3c-0.7,0-1.4-0.1-2.1-0.4c-0.6-0.2-1.1-0.6-1.6-1
		l0.5-0.7c0.1-0.1,0.1-0.2,0.2-0.2c0.1-0.1,0.2-0.1,0.3-0.1c0.2,0,0.3,0.1,0.4,0.2c0.1,0.1,0.3,0.2,0.5,0.3c0.2,0.1,0.5,0.3,0.8,0.3
		c0.4,0.1,0.7,0.2,1.1,0.2c0.3,0,0.7,0,1-0.1c0.3-0.1,0.5-0.2,0.7-0.4c0.2-0.2,0.3-0.4,0.4-0.6c0.1-0.2,0.1-0.5,0.1-0.7
		c0-0.3-0.1-0.5-0.2-0.8c-0.2-0.2-0.4-0.4-0.7-0.5c-0.3-0.2-0.6-0.3-0.9-0.4c-0.3-0.1-0.7-0.2-1.1-0.3c-0.4-0.1-0.7-0.3-1.1-0.4
		c-0.3-0.1-0.7-0.3-0.9-0.6c-0.3-0.2-0.5-0.5-0.7-0.8c-0.2-0.4-0.3-0.8-0.2-1.2c0-0.4,0.1-0.8,0.3-1.2c0.2-0.4,0.4-0.8,0.8-1
		c0.4-0.3,0.8-0.6,1.2-0.7c0.5-0.2,1.1-0.3,1.7-0.3c0.7,0,1.3,0.1,2,0.3c0.6,0.2,1.1,0.5,1.5,1L153.7,13.7z"/>
	<path class="st1" d="M166.9,23.1h-2v-9.5h-5.8v6.7c0,0.2,0,0.4,0.1,0.6c0.1,0.2,0.2,0.3,0.3,0.5c0.1,0.1,0.3,0.2,0.4,0.3
		c0.2,0.1,0.3,0.1,0.5,0.1c0.2,0,0.4,0,0.5-0.1c0.1,0,0.3-0.1,0.4-0.2c0.1-0.1,0.2-0.1,0.3-0.2c0.1,0,0.1-0.1,0.2-0.1
		c0.1,0,0.1,0,0.2,0.1c0,0,0.1,0.1,0.1,0.1l0.6,0.9c-0.4,0.3-0.8,0.6-1.2,0.7c-0.5,0.2-1,0.3-1.5,0.3c-0.4,0-0.7,0-1.1-0.2
		c-0.4-0.1-0.7-0.3-0.9-0.6c-0.5-0.5-0.7-1.2-0.7-2.1v-6.8h-1.3c-0.1,0-0.2,0-0.3-0.1c0,0-0.1-0.1-0.1-0.1c0-0.1,0-0.1,0-0.2v-0.8
		l1.8-0.2l0.5-3.4c0-0.1,0.1-0.2,0.1-0.3c0.1-0.1,0.2-0.1,0.3-0.1h1v3.8h7.7V23.1z M167.4,8.3c0,0.2,0,0.4-0.1,0.5
		c-0.1,0.2-0.2,0.3-0.3,0.4c-0.1,0.1-0.3,0.2-0.4,0.3c-0.2,0.1-0.4,0.1-0.5,0.1c-0.2,0-0.4,0-0.5-0.1c-0.3-0.1-0.6-0.4-0.7-0.7
		c-0.1-0.2-0.1-0.4-0.1-0.5c0-0.2,0-0.4,0.1-0.5c0.1-0.2,0.2-0.3,0.3-0.5c0.1-0.1,0.3-0.2,0.4-0.3c0.2-0.1,0.4-0.1,0.5-0.1
		c0.2,0,0.4,0,0.5,0.1c0.2,0.1,0.3,0.2,0.4,0.3c0.1,0.1,0.2,0.3,0.3,0.5C167.4,7.9,167.4,8.1,167.4,8.3z"/>
	<path class="st1" d="M173.1,23.2c-0.4,0-0.7,0-1.1-0.2c-0.4-0.1-0.7-0.3-0.9-0.6c-0.5-0.5-0.7-1.2-0.7-2.1v-6.8H169
		c-0.1,0-0.2,0-0.3-0.1c0,0-0.1-0.1-0.1-0.1c0-0.1,0-0.1,0-0.2v-0.8l1.8-0.2l0.5-3.4c0-0.1,0.1-0.2,0.1-0.3c0.1-0.1,0.2-0.1,0.3-0.1
		h1v3.8h3.2v1.4h-3.2v6.7c0,0.2,0,0.4,0.1,0.6c0.1,0.2,0.2,0.3,0.3,0.5c0.1,0.1,0.3,0.2,0.4,0.3c0.2,0.1,0.3,0.1,0.5,0.1
		c0.2,0,0.4,0,0.5-0.1c0.1,0,0.3-0.1,0.4-0.2c0.1-0.1,0.2-0.1,0.3-0.2c0.1,0,0.1-0.1,0.2-0.1c0.1,0,0.1,0,0.2,0.1
		c0,0,0.1,0.1,0.1,0.1l0.6,0.9c-0.4,0.3-0.8,0.6-1.2,0.7C174.1,23.1,173.6,23.2,173.1,23.2L173.1,23.2z"/>
	<path class="st1" d="M186.3,11.9v11.2h-1.2c-0.1,0-0.2,0-0.3-0.1c-0.1-0.1-0.2-0.2-0.2-0.3l-0.2-1.2c-0.5,0.5-1,1-1.6,1.3
		c-0.6,0.3-1.4,0.5-2.1,0.5c-0.6,0-1.1-0.1-1.6-0.3c-0.5-0.2-0.9-0.5-1.2-0.9c-0.3-0.4-0.6-0.8-0.7-1.3c-0.2-0.6-0.2-1.1-0.2-1.7
		v-7.1h2V19c0,0.7,0.2,1.4,0.6,2c0.2,0.2,0.5,0.4,0.8,0.6c0.3,0.1,0.6,0.2,1,0.1c0.6,0,1.1-0.1,1.6-0.4c0.5-0.3,1-0.7,1.4-1.1v-8.2
		L186.3,11.9z"/>
	<path class="st1" d="M192.4,23.2c-0.4,0-0.7,0-1.1-0.2c-0.4-0.1-0.7-0.3-0.9-0.6c-0.5-0.5-0.7-1.2-0.7-2.1v-6.8h-1.3
		c-0.1,0-0.2,0-0.3-0.1c0,0-0.1-0.1-0.1-0.1c0-0.1,0-0.1,0-0.2v-0.8l1.8-0.2l0.5-3.4c0-0.1,0.1-0.2,0.1-0.3c0.1-0.1,0.2-0.1,0.3-0.1
		h1v3.8h3.2v1.4h-3.2v6.7c0,0.2,0,0.4,0.1,0.6c0.1,0.2,0.2,0.3,0.3,0.5c0.1,0.1,0.3,0.2,0.4,0.3c0.2,0.1,0.3,0.1,0.5,0.1
		c0.2,0,0.4,0,0.5-0.1c0.1,0,0.3-0.1,0.4-0.2c0.1-0.1,0.2-0.1,0.3-0.2c0.1,0,0.1-0.1,0.2-0.1c0.1,0,0.1,0,0.2,0.1
		c0,0,0.1,0.1,0.1,0.1l0.6,0.9c-0.4,0.3-0.8,0.6-1.2,0.7C193.4,23.1,192.9,23.2,192.4,23.2L192.4,23.2z"/>
	<path class="st1" d="M205.3,21.5c-0.2,0.3-0.5,0.6-0.9,0.8c-0.3,0.2-0.7,0.4-1.1,0.5c-0.4,0.1-0.8,0.2-1.2,0.3
		c-0.4,0.1-0.8,0.1-1.2,0.1c-0.7,0-1.5-0.1-2.1-0.4c-0.6-0.3-1.2-0.6-1.7-1.1c-0.5-0.5-0.9-1.2-1.1-1.9c-0.3-0.8-0.4-1.7-0.4-2.6
		c0-0.7,0.1-1.5,0.4-2.2c0.2-0.6,0.6-1.2,1-1.8c0.5-0.5,1-0.9,1.6-1.2c0.7-0.3,1.4-0.4,2.2-0.4c0.6,0,1.3,0.1,1.9,0.3
		c0.6,0.2,1.1,0.5,1.5,1c0.4,0.4,0.8,1,1,1.6c0.2,0.7,0.4,1.4,0.4,2.1c0,0.2,0,0.4-0.1,0.6c0,0.1-0.1,0.1-0.2,0.1
		c-0.1,0-0.1,0-0.2,0h-7.5c0,0.6,0.1,1.2,0.3,1.8c0.1,0.5,0.4,0.9,0.7,1.3c0.3,0.3,0.7,0.6,1.1,0.8c0.5,0.2,0.9,0.3,1.4,0.3
		c0.4,0,0.9,0,1.3-0.2c0.3-0.1,0.6-0.2,0.9-0.4c0.2-0.1,0.4-0.2,0.6-0.4c0.1-0.1,0.3-0.2,0.4-0.2c0.1,0,0.1,0,0.2,0
		c0.1,0,0.1,0.1,0.2,0.1L205.3,21.5z M203.7,16.3c0-0.4-0.1-0.8-0.2-1.3c-0.1-0.4-0.3-0.7-0.6-1c-0.2-0.3-0.6-0.5-0.9-0.6
		c-0.6-0.2-1.2-0.3-1.8-0.2c-0.6,0.1-1.2,0.4-1.6,0.8c-0.6,0.6-0.9,1.4-1,2.3L203.7,16.3z"/>
	<path class="st1" d="M214.2,23.1v-9.5l-1.2-0.1c-0.1,0-0.3-0.1-0.4-0.2c0,0-0.1-0.1-0.1-0.1c0-0.1,0-0.1,0-0.2v-0.8h1.8V11
		c0-0.6,0.1-1.2,0.3-1.7c0.2-0.5,0.4-0.9,0.8-1.3c0.3-0.3,0.8-0.6,1.2-0.8c0.5-0.2,1-0.3,1.6-0.3c0.5,0,0.9,0.1,1.4,0.2l0,1
		c0,0,0,0.1,0,0.1s0,0.1-0.1,0.1c0,0-0.1,0-0.1,0.1c0,0-0.1,0-0.1,0c-0.2,0-0.4,0-0.7,0c-0.3,0-0.6,0-0.9,0.1
		c-0.3,0.1-0.5,0.2-0.7,0.4c-0.2,0.2-0.4,0.5-0.5,0.8c-0.1,0.4-0.2,0.8-0.2,1.2v1h3.2v1.4h-3.2v9.5L214.2,23.1z"/>
	<path class="st1" d="M225.3,11.7c0.8,0,1.5,0.1,2.2,0.4c0.6,0.3,1.2,0.7,1.7,1.2c0.5,0.5,0.8,1.1,1.1,1.8c0.5,1.5,0.5,3.2,0,4.8
		c-0.2,0.7-0.6,1.3-1.1,1.8c-0.5,0.5-1,0.9-1.7,1.2c-0.7,0.3-1.5,0.4-2.2,0.4c-0.8,0-1.5-0.1-2.2-0.4c-0.6-0.3-1.2-0.6-1.7-1.2
		c-0.5-0.5-0.8-1.1-1.1-1.8c-0.5-1.5-0.5-3.2,0-4.8c0.2-0.7,0.6-1.3,1.1-1.8c0.5-0.5,1-0.9,1.7-1.2
		C223.8,11.8,224.6,11.7,225.3,11.7L225.3,11.7z M225.3,21.7c1.1,0,1.9-0.4,2.5-1.1c0.5-0.7,0.8-1.8,0.8-3.1c0-1.3-0.3-2.4-0.8-3.1
		c-0.5-0.7-1.4-1.1-2.5-1.1c-0.5,0-1,0.1-1.5,0.3c-0.4,0.2-0.8,0.5-1,0.8c-0.3,0.4-0.5,0.8-0.6,1.3c-0.1,0.6-0.2,1.2-0.2,1.8
		c0,1.3,0.3,2.4,0.8,3.1C223.4,21.3,224.2,21.7,225.3,21.7L225.3,21.7z"/>
	<path class="st1" d="M234.6,14.1c0.3-0.7,0.7-1.3,1.3-1.8c0.5-0.4,1.2-0.7,1.9-0.6c0.2,0,0.5,0,0.7,0.1c0.2,0,0.4,0.1,0.6,0.2
		l-0.1,1.5c0,0.1,0,0.2-0.1,0.2c-0.1,0.1-0.1,0.1-0.2,0.1c-0.2,0-0.3,0-0.5-0.1c-0.2,0-0.4-0.1-0.7-0.1c-0.3,0-0.6,0-0.9,0.2
		c-0.3,0.1-0.5,0.3-0.7,0.5c-0.2,0.2-0.4,0.5-0.6,0.7c-0.2,0.3-0.3,0.7-0.5,1v7.1h-2V11.9h1.1c0.2,0,0.3,0,0.4,0.1
		c0.1,0.1,0.2,0.3,0.2,0.4L234.6,14.1z"/>
	<path class="st1" d="M259.7,23.1H258c-0.2,0-0.3,0-0.5-0.1c-0.1-0.1-0.2-0.2-0.3-0.4l-1.5-3.8h-7.1l-1.5,3.8c0,0.1-0.1,0.3-0.3,0.4
		c-0.1,0.1-0.3,0.2-0.5,0.2h-1.7l6.3-15.8h2.2L259.7,23.1z M255.2,17.2l-2.5-6.4c-0.1-0.2-0.2-0.4-0.2-0.7c-0.1-0.3-0.2-0.5-0.2-0.8
		c-0.1,0.5-0.3,1-0.5,1.5l-2.5,6.4H255.2z"/>
	<path class="st1" d="M263.5,23.1h-2.1V7.3h2.1V23.1z"/>
</g>
</svg>
