<?xml version="1.0" encoding="UTF-8"?>
<svg width="160px" height="152px" viewBox="0 0 160 152" version="1.1" xmlns="http://www.w3.org/2000/svg" xmlns:xlink="http://www.w3.org/1999/xlink">
    <defs>
        <linearGradient x1="63.3445581%" y1="100%" x2="63.3445561%" y2="-5.31597255%" id="linearGradient-1">
            <stop stop-color="#DCE9FF" offset="0%"></stop>
            <stop stop-color="#B6CFFF" offset="100%"></stop>
        </linearGradient>
    </defs>
    <g stroke="none" stroke-width="1" fill="none" fill-rule="evenodd">
        <g transform="translate(-564.000000, -1284.000000)">
            <g transform="translate(64.000000, 1252.000000)">
                <g transform="translate(500.000000, 32.000000)">
                    <g transform="translate(0.000000, 31.669993)">
                        <ellipse fill-opacity="0.8" fill="#F5F5F7" cx="67.7966102" cy="106.89022" rx="67.7966102" ry="12.6679973"></ellipse>
                        <g transform="translate(13.559322, 0.000000)">
                            <path d="M108.474576,69.6739854 L84.5495763,40.2294791 C83.4014831,38.8426258 81.7235169,38.003992 79.9569915,38.003992 L28.5175847,38.003992 C26.7510593,38.003992 25.0730932,38.8428446 23.925,40.2294791 L-8.52651283e-13,69.6739854 L-8.52651283e-13,85.0565536 L108.474576,85.0565536 L108.474576,69.6739854 Z" id="Shape" fill="#AEB8C2" fill-rule="nonzero"></path>
                            <path d="M101.537074,86.2138168 L80.6301671,61.1018787 C79.6289692,59.895119 78.122836,59.2353801 76.5822224,59.2353801 L31.7237779,59.2353801 C30.1833759,59.2353801 28.6770311,59.895119 27.6758332,61.1018787 L6.76913824,86.2138168 L6.76913824,100.005761 L101.537074,100.005761 L101.537074,86.2138168 Z" id="Shape" fill="url(#linearGradient-1)" fill-rule="nonzero"></path>
                            <path d="M20.2711864,0 L88.2033898,0 C90.4125288,-4.05812251e-16 92.2033898,1.790861 92.2033898,4 L92.2033898,97.3439787 C92.2033898,99.5531177 90.4125288,101.343979 88.2033898,101.343979 L20.2711864,101.343979 C18.0620474,101.343979 16.2711864,99.5531177 16.2711864,97.3439787 L16.2711864,4 C16.2711864,1.790861 18.0620474,4.05812251e-16 20.2711864,0 Z" id="Rectangle-16" fill="#F5F5F7"></path>
                            <path d="M29.1186441,9.95342648 L79.3559322,9.95342648 C80.4605017,9.95342648 81.3559322,10.848857 81.3559322,11.9534265 L81.3559322,36.908849 C81.3559322,38.0134185 80.4605017,38.908849 79.3559322,38.908849 L29.1186441,38.908849 C28.0140746,38.908849 27.1186441,38.0134185 27.1186441,36.908849 L27.1186441,11.9534265 C27.1186441,10.848857 28.0140746,9.95342648 29.1186441,9.95342648 Z" id="Rectangle-16-Copy" fill="#DCE0E6"></path>
                            <path d="M29.3807864,49.7671324 L79.0937898,49.7671324 C80.3431366,49.7671324 81.3559322,50.779928 81.3559322,52.0292748 L81.3559322,52.0292748 C81.3559322,53.2786215 80.3431366,54.2914172 79.0937898,54.2914172 L60.8589337,54.2914172 L29.3807864,54.2914172 C28.1314397,54.2914172 27.1186441,53.2786215 27.1186441,52.0292748 L27.1186441,52.0292748 C27.1186441,50.779928 28.1314397,49.7671324 29.3807864,49.7671324 Z" id="Rectangle-16-Copy-3" fill="#DCE0E6"></path>
                            <path d="M29.3807864,61.5302728 L79.0937898,61.5302728 C80.3431366,61.5302728 81.3559322,62.5430684 81.3559322,63.7924152 L81.3559322,63.7924152 C81.3559322,65.0417619 80.3431366,66.0545576 79.0937898,66.0545576 L29.3807864,66.0545576 C28.1314397,66.0545576 27.1186441,65.0417619 27.1186441,63.7924152 L27.1186441,63.7924152 C27.1186441,62.5430684 28.1314397,61.5302728 29.3807864,61.5302728 Z" id="Rectangle-16-Copy-10" fill="#DCE0E6"></path>
                            <path d="M108.253299,105.031783 C107.478259,108.103031 104.756975,110.392548 101.519068,110.392548 L6.95550847,110.392548 C3.71741791,110.392548 0.996253903,108.102871 0.221260813,105.031697 C0.0768721842,104.459211 0,103.859608 0,103.242618 L0,69.6739854 L26.3175847,69.6739854 C29.2245763,69.6739854 31.5677966,72.1222712 31.5677966,75.0940449 L31.5677966,75.1332469 C31.5677966,78.1050207 33.9377119,80.5034918 36.8447034,80.5034918 L71.6298729,80.5034918 C74.5368644,80.5034918 76.9067797,78.0829289 76.9067797,75.1111552 L76.9067797,75.0996761 C76.9067797,72.1279024 79.25,69.6744185 82.1569915,69.6739854 L108.474576,69.6739854 L108.474576,103.242618 C108.474576,103.859647 108.397698,104.459277 108.253199,105.031744 Z" id="Combined-Shape" fill="#DCE0E6" fill-rule="nonzero"></path>
                        </g>
                    </g>
                    <g transform="translate(114.802260, 0.000000)">
                        <path d="M10.3190672,33.2919889 L3.48787417,35.9423279 C2.97298359,36.142093 2.39364062,35.8866334 2.19387543,35.3717429 C2.11200721,35.1607292 2.10414509,34.9281839 2.17157435,34.7121227 L4.10878532,28.5047857 C1.520128,25.5609826 0,21.9712205 0,18.0971391 C0,8.10236514 10.1178588,-1.0658141e-14 22.5988701,-1.0658141e-14 C35.0798814,-1.0658141e-14 45.1977401,8.10236514 45.1977401,18.0971391 C45.1977401,28.091913 35.0798814,36.1942781 22.5988701,36.1942781 C18.0712188,36.1942781 13.8545516,35.1280302 10.3190672,33.2919889 Z" id="Combined-Shape" fill="#DCE0E6"></path>
                        <g transform="translate(10.847458, 15.382568)" fill="#FFFFFF">
                            <ellipse cx="20.6539976" cy="3.16699933" rx="2.84882726" ry="2.81511052"></ellipse>
                            <polygon points="5.69765451 5.63022104 0 5.63022104 2.89777618 0.70377763"></polygon>
                            <rect x="9.25868858" y="0.70377763" width="4.9854477" height="4.92644341"></rect>
                        </g>
                    </g>
                </g>
            </g>
        </g>
    </g>
</svg>